<?xml version="1.0" encoding="UTF-8"?>
<svg id="Capa_1" data-name="Capa 1" xmlns="http://www.w3.org/2000/svg" viewBox="0 0 262.42 33.68">
  <defs>
    <style>
      .cls-1 {
        fill: #000;
        stroke-width: 0px;
      }
    </style>
  </defs>
  <g>
    <path class="cls-1" d="M30.62,13.02v-2.53c0-1.55-.48-2.27-2.09-2.44h-9.13V0h8.32s2.26,0,2.26,0c.06,0,.12,0,.18,0h.14c4.1.08,5.56,1.53,5.56,5.49v7.05c0,1.2.37,1.62,1.23,1.62h1.3v5.34h-1.3c-.86,0-1.23.43-1.23,1.63v7.04c0,3.96-1.46,5.42-5.56,5.49h0s-.33,0-.33,0h-10.58v-8.04h9.11c1.62-.16,2.1-.86,2.1-2.44v-1.59c0-2.83.73-4.18,2.83-4.76-2.09-.58-2.83-.99-2.83-3.82Z"/>
    <path class="cls-1" d="M7.58,20.06h3.18c.65,0,1.19-.25,1.63-.76.48-.56.72-1.22.72-1.97s-.24-1.41-.73-1.95c-.45-.52-.99-.78-1.62-.78h-3.18v-2.36h3.18c.99,0,1.86.3,2.59.91.73.61,1.27,1.35,1.62,2.23.24.6.35,1.25.35,1.94,0,1.37-.44,2.56-1.31,3.56-.4.46-.89.82-1.46,1.11-.57.28-1.17.42-1.79.42h-3.18v-2.36Z"/>
    <path class="cls-1" d="M16.07,14.6v-2.36h6.36v2.36h-6.36ZM16.07,18.51v-2.35h6.36v2.35h-6.36ZM16.07,22.42v-2.36h6.36v2.36h-6.36Z"/>
    <path class="cls-1" d="M28.12,23.04l-4.76-10.8h2.45l3.55,8.03-1.23,2.77Z"/>
    <path class="cls-1" d="M7.01,13.02v-2.53c0-1.55.43-2.27,1.88-2.44h8.22V0h-7.49s-2.04,0-2.04,0c-.06,0-.11,0-.17,0h-.13C3.59.08,2.28,1.54,2.28,5.5v7.05c0,1.2-.33,1.62-1.11,1.62H0v5.34h1.17c.78,0,1.11.43,1.11,1.63v7.04c0,3.96,1.31,5.42,5.01,5.49h0s.29,0,.29,0h9.53v-8.04h-8.21c-1.46-.16-1.89-.86-1.89-2.44v-1.59c0-2.83-.66-4.18-2.55-4.76,1.89-.58,2.55-.99,2.55-3.82Z"/>
  </g>
  <g>
    <path class="cls-1" d="M66.57,8.67l-4.42,18.5h-3.54l-.06-.26-2.66-10.74-2.63,11h-3.54l-.06-.26-4.51-18.24h3.66l2.6,10.9,2.63-10.9h3.66l2.6,10.9,2.63-10.9h3.63ZM45.27,27.17h-.12l.06-.26.06.26Z"/>
    <path class="cls-1" d="M87.15,24.61c-.62.9-1.4,1.61-2.33,2.13-.93.52-1.95.79-3.06.79-.92,0-1.79-.19-2.61-.58-.82-.38-1.53-.91-2.14-1.57-.61-.66-1.08-1.44-1.43-2.32s-.53-1.84-.53-2.87.18-1.98.53-2.87.83-1.66,1.43-2.32c.6-.66,1.32-1.19,2.14-1.57.82-.38,1.69-.58,2.61-.58.8,0,1.55.14,2.25.42.7.28,1.34.67,1.92,1.17.58.5,1.07,1.09,1.48,1.76.41.67.7,1.4.88,2.2.06.3.11.6.15.9.04.3.06.6.06.9,0,.24-.01.46-.03.67-.02.21-.04.41-.06.58-.04.19-.08.37-.12.55h-9.54c.29.6.71,1.08,1.24,1.44.54.36,1.13.54,1.77.54.51,0,.98-.12,1.43-.35.45-.24.83-.55,1.14-.93l2.81,1.92ZM81.76,16.4c-.64,0-1.23.19-1.77.56-.54.37-.95.85-1.24,1.43h6.06c-.29-.58-.71-1.05-1.24-1.43-.54-.37-1.14-.56-1.8-.56Z"/>
    <path class="cls-1" d="M104.44,12.84c.94,0,1.81.19,2.62.58.81.38,1.52.91,2.12,1.57.6.66,1.08,1.44,1.43,2.32.35.89.53,1.84.53,2.87s-.18,1.98-.53,2.87c-.35.89-.83,1.66-1.43,2.32-.61.66-1.31,1.19-2.12,1.57-.81.38-1.68.58-2.62.58-.7,0-1.38-.11-2.02-.34s-1.24-.54-1.79-.95v.93h-3.66V7.9h3.66v6.22c.55-.41,1.14-.72,1.79-.95s1.32-.34,2.02-.34ZM104.06,23.97c.47,0,.91-.1,1.33-.3.42-.2.79-.47,1.1-.82.31-.34.56-.74.75-1.2s.28-.95.28-1.46-.09-1-.28-1.46-.43-.86-.75-1.2c-.31-.34-.68-.61-1.1-.82-.42-.2-.86-.3-1.33-.3s-.91.1-1.33.3c-.42.2-.79.48-1.1.82-.31.34-.56.74-.73,1.2s-.26.95-.26,1.46.09,1,.26,1.46.42.86.73,1.2c.31.34.68.61,1.1.82.42.2.86.3,1.33.3Z"/>
    <path class="cls-1" d="M136.43,21.85c-.35.83-.79,1.6-1.33,2.31-.54.71-1.15,1.3-1.84,1.79s-1.45.88-2.27,1.15c-.82.28-1.68.42-2.58.42-1.21,0-2.35-.25-3.42-.75-1.07-.5-2.01-1.19-2.8-2.05-.79-.87-1.41-1.89-1.87-3.06s-.69-2.43-.69-3.75.23-2.57.69-3.74,1.08-2.19,1.87-3.06c.79-.88,1.72-1.57,2.8-2.07,1.07-.5,2.21-.75,3.42-.75.9,0,1.76.14,2.58.42.82.28,1.57.67,2.27,1.17.69.5,1.31,1.1,1.84,1.8.54.69.98,1.46,1.33,2.29l-3.42,1.44c-.43-.94-1.05-1.69-1.86-2.26-.81-.57-1.72-.85-2.74-.85-.7,0-1.37.14-1.99.43-.63.29-1.17.69-1.64,1.2-.47.51-.83,1.11-1.1,1.8s-.4,1.41-.4,2.18.13,1.5.4,2.18.63,1.28,1.1,1.79c.47.51,1.01.91,1.64,1.2.62.29,1.29.43,1.99.43,1.02,0,1.93-.28,2.74-.85.81-.57,1.43-1.31,1.86-2.23l3.42,1.41Z"/>
    <path class="cls-1" d="M148.3,10.72c-.38.43-.84.64-1.39.64s-1.04-.21-1.42-.64c-.38-.43-.57-.94-.57-1.54s.19-1.11.57-1.52c.38-.42.85-.63,1.42-.63s1.01.21,1.39.63c.38.42.57.92.57,1.52s-.19,1.11-.57,1.54ZM145.06,27.17h3.66v-13.98h-3.66v13.98Z"/>
    <path class="cls-1" d="M169.65,19.77v7.41h-3.66v-7.28c0-1.05-.21-1.9-.63-2.56-.42-.66-1.06-.99-1.92-.99s-1.5.33-1.87.99c-.37.66-.56,1.52-.56,2.56v7.28h-3.66v-13.98h3.66v.8c.37-.36.78-.65,1.24-.85.46-.2.98-.3,1.57-.3.92,0,1.74.17,2.46.51s1.33.82,1.83,1.43c.5.61.88,1.34,1.14,2.18.26.84.4,1.78.4,2.81Z"/>
    <path class="cls-1" d="M191.01,23.07c-.25.66-.59,1.27-1.01,1.81-.42.55-.89,1.02-1.42,1.41-.53.4-1.11.7-1.74.91-.63.21-1.3.32-2.01.32-.92,0-1.78-.19-2.6-.58s-1.53-.91-2.14-1.57c-.61-.66-1.08-1.44-1.43-2.32-.35-.89-.53-1.84-.53-2.87s.17-1.98.53-2.87c.35-.89.83-1.66,1.43-2.32.6-.66,1.32-1.19,2.14-1.57s1.69-.58,2.6-.58c.7,0,1.37.11,2.01.32.63.21,1.21.52,1.74.91.53.4,1,.87,1.42,1.41.42.54.76,1.14,1.01,1.78l-3.1,1.25c-.27-.62-.68-1.13-1.23-1.52-.55-.4-1.16-.59-1.84-.59-.47,0-.91.1-1.33.3-.42.2-.79.48-1.1.82-.31.34-.56.74-.73,1.2-.17.46-.26.95-.26,1.46s.09,1,.26,1.46c.18.46.42.86.73,1.2.31.34.68.61,1.1.82.42.2.86.3,1.33.3.7,0,1.33-.2,1.89-.61s.97-.94,1.24-1.6l3.04,1.31Z"/>
    <path class="cls-1" d="M206.2,12.84c.94,0,1.81.19,2.62.58s1.52.91,2.14,1.57,1.1,1.44,1.45,2.32.53,1.84.53,2.87-.18,1.98-.53,2.87-.83,1.66-1.45,2.32-1.33,1.19-2.14,1.57-1.68.58-2.62.58-1.78-.19-2.6-.58-1.53-.91-2.14-1.57c-.61-.66-1.08-1.44-1.43-2.32-.35-.89-.53-1.84-.53-2.87s.17-1.98.53-2.87c.35-.89.83-1.66,1.43-2.32.6-.66,1.32-1.19,2.14-1.57s1.69-.58,2.6-.58ZM206.2,23.97c.47,0,.91-.1,1.33-.3.42-.2.79-.47,1.1-.82.31-.34.56-.74.75-1.2s.28-.95.28-1.46-.09-1-.28-1.46-.43-.86-.75-1.2c-.31-.34-.68-.61-1.1-.82-.42-.2-.86-.3-1.33-.3s-.91.1-1.33.3c-.42.2-.79.48-1.1.82-.31.34-.56.74-.73,1.2-.17.46-.26.95-.26,1.46s.09,1,.26,1.46c.18.46.42.86.73,1.2.31.34.68.61,1.1.82.42.2.86.3,1.33.3Z"/>
    <path class="cls-1" d="M233.57,11.37c.72.83,1.28,1.81,1.68,2.93.4,1.12.6,2.32.6,3.61s-.2,2.48-.6,3.61c-.4,1.12-.96,2.11-1.68,2.95-.72.84-1.58,1.51-2.56,1.99-.99.48-2.06.72-3.23.72h-6.35V8.67h6.35c1.17,0,2.25.24,3.23.72s1.84,1.14,2.56,1.97ZM230.99,21.63c.8-1,1.2-2.24,1.2-3.72,0-.73-.11-1.41-.32-2.04-.22-.63-.51-1.19-.89-1.67-.38-.48-.84-.86-1.39-1.14-.55-.28-1.15-.42-1.81-.42h-2.69v10.52h2.69c.68,0,1.29-.13,1.83-.4.54-.27,1-.65,1.39-1.14Z"/>
    <path class="cls-1" d="M248.82,24.61c-.62.9-1.4,1.61-2.33,2.13-.93.52-1.95.79-3.06.79-.92,0-1.78-.19-2.6-.58s-1.53-.91-2.14-1.57c-.61-.66-1.08-1.44-1.43-2.32-.35-.89-.53-1.84-.53-2.87s.17-1.98.53-2.87c.35-.89.83-1.66,1.43-2.32.6-.66,1.32-1.19,2.14-1.57s1.69-.58,2.6-.58c.8,0,1.55.14,2.25.42.7.28,1.34.67,1.92,1.17.58.5,1.07,1.09,1.48,1.76.41.67.7,1.4.88,2.2.06.3.11.6.15.9.04.3.06.6.06.9,0,.24-.01.46-.03.67-.02.21-.04.41-.06.58-.04.19-.08.37-.12.55h-9.54c.29.6.71,1.08,1.24,1.44.54.36,1.13.54,1.77.54.51,0,.99-.12,1.43-.35s.83-.55,1.14-.93l2.81,1.92ZM243.43,16.4c-.64,0-1.23.19-1.77.56-.54.37-.95.85-1.24,1.43h6.06c-.29-.58-.71-1.05-1.24-1.43-.54-.37-1.14-.56-1.8-.56Z"/>
    <path class="cls-1" d="M262.42,13.19l-3.78,13.98h-5.3l-3.78-13.98h3.66l2.75,10.26,2.78-10.26h3.66Z"/>
  </g>
  <rect class="cls-1" x="216.68" y="3.21" width="1.43" height="28.86"/>
</svg>